<?xml version="1.0" encoding="UTF-8"?>
<svg width="1199.00364px" height="719.52375px" viewBox="0 0 1199.00364 719.52375" version="1.1" xmlns="http://www.w3.org/2000/svg" xmlns:xlink="http://www.w3.org/1999/xlink">
    <title>logo-dark</title>
    <g id="ändern" stroke="none" stroke-width="1" fill="none" fill-rule="evenodd">
        <g id="logo-darrk-redis" transform="translate(-499.999467, -222.999848)">
            <g id="logo-dark" transform="translate(499.999467, 222.999848)">
                <path d="M787.722,242.714 L792.383273,249.738667 C779.849025,258.055401 765.795787,262.9177 751.133617,263.83928 L787.722,242.714 Z M779.114054,229.740471 L781.075,232.695 L729.693613,262.364358 C724.306398,261.269553 719.084702,259.641507 714.067433,257.529683 L744.463786,239.979438 C744.975885,239.993225 745.489189,240.000152 746.003635,240.000152 C757.697619,240.000152 768.984893,236.461381 779.114054,229.740471 Z M523.007999,262.00323 L514.313,262.003 L517.052567,260.424071 C519.012425,261.02317 520.998256,261.550429 523.007999,262.00323 Z M62.8623699,259.377692 L58.314,262.002 L34.317,262.001 L49.4017177,253.293 C53.711941,255.705819 58.2084401,257.746274 62.8623699,259.377692 Z M240.003,254.099 L240.003533,262.000152 L226.314,262.002 L240.003,254.099 Z M502.989225,254.685002 L490.314,262.002 L466.316,262.001 L491.399621,247.521372 C495.095866,250.210139 498.966501,252.607467 502.989225,254.685002 Z M177.193697,248.794242 L154.316,262.001 L130.317,262.001 L169.962618,239.11187 C172.072333,242.635066 174.491142,245.881717 177.193697,248.794242 Z M197.453194,262.00168 L178.316,262.001 L186.955103,257.014877 C190.303119,259.167313 193.822476,260.833893 197.453194,262.00168 Z M622.291531,241.232125 L586.316,262.001 L562.316,262.001 L565.222166,260.324247 C572.974541,257.919498 580.413728,254.363105 587.383273,249.738667 L586.323,248.141 L616.691901,230.607518 C618.25998,234.383198 620.134125,237.942004 622.291531,241.232125 Z M633.377194,253.678199 C635.627112,255.523653 637.977176,257.128114 640.406036,258.486979 L634.316,262.001 L610.316,262.001 L629.992296,250.641927 C631.079826,251.706502 632.208608,252.719688 633.377194,253.678199 Z M481.596337,239.32342 L442.317,262.000152 L428.003,262.000152 L428.003,256.408 L473.233767,230.29654 C475.861122,233.496849 478.653665,236.512192 481.596337,239.32342 Z M404.003,187.126 L404.003,200.982 L298.317,262 L274.318,262 L404.003,187.126 Z M404.003,214.839 L404.003,228.695 L346.317,262 L322.318,262 L404.003,214.839 Z M404.003,242.552 L404.003,256.408 L394.317,262 L370.318,262 L404.003,242.552 Z M38.2249236,245.890334 L11.4540611,261.34406 C7.1725249,260.076503 3.63977019,257.065696 1.67804803,253.133889 L28.7443734,237.507325 C31.7437457,240.526119 34.9096094,243.327677 38.2249236,245.890334 Z M885.003,241.974 L885.003,255.83 L877.781,260.000152 L861.003635,260.000152 L861.003,255.83 L885.003,241.974 Z M1035.003,238.51 L1035.003,252.366 L1021.781,260.000152 L1011.00364,260.000152 L1011.003,252.366 L1035.003,238.51 Z M1199.003,254.676 L1199.00364,260.000152 L1189.781,260 L1199.003,254.676 Z M1199.003,226.963 L1199.003,240.819 L1175.003,254.675 L1175.003,240.819 L1199.003,226.963 Z M404.003,159.414 L404.003,173.27 L264.003,254.099 L264.003,240.242 L404.003,159.414 Z M726.404224,236.549406 L701.459573,250.950248 C697.781203,248.634352 694.2531,246.040522 690.894745,243.193528 L713.518182,230.132127 C717.600622,232.772901 721.913825,234.931699 726.404224,236.549406 Z M240.003,226.386 L240.003,240.242 L229.266,246.441 L222.867,236.28 L240.003,226.386 Z M164.765373,228.256051 L133.938,246.054 L127.291,236.035 L161.437843,216.321927 C162.23257,220.466327 163.348959,224.460752 164.765373,228.256051 Z M466.113922,220.549586 L428.003,242.552 L428.003,228.696 L460.131986,210.147131 C461.958935,213.751085 463.95708,217.223867 466.113922,220.549586 Z M885.003,214.261 L885.003,228.117 L861.003,241.974 L861.003,228.118 L885.003,214.261 Z M20.6526063,228.322734 L0.003,240.243 L0.002,226.387 L13.7762713,218.435153 C15.9053249,221.885814 18.2018429,225.187277 20.6526063,228.322734 Z M160.003,189.436 L160.003635,201.000152 C160.003635,201.761103 160.013878,202.519352 160.034255,203.274653 L97.20956,239.54805 C94.8294751,239.848396 92.4252759,240.000152 90.0036355,240.000152 C85.0841774,240.000152 80.2691832,239.366644 75.6135512,238.160213 L160.003,189.436 Z M611.003,178.466 L611.003,192.322 L530.208919,238.971064 C524.959019,237.961769 519.887918,236.228677 515.070517,233.854448 L611.003,178.466 Z M1035.003,210.797 L1035.003,224.653 L1011.003,238.51 L1011.003,224.654 L1035.003,210.797 Z M612.977015,218.895637 L579.676,238.122 L574.114054,229.740471 C568.324844,233.581732 562.157329,236.383527 555.751793,238.079272 L611.157779,206.089884 C611.425567,210.488234 612.039417,214.773717 612.977015,218.895637 Z M240.003,198.674 L240.003,212.53 L199.007246,236.200585 C198.532389,235.862748 198.062455,235.503108 197.597673,235.121879 L197.261093,234.841202 C194.803215,232.757634 192.608987,230.147918 190.746955,227.111744 L240.003,198.674 Z M703.369263,222.134147 L681.903442,234.528805 C679.189743,231.565662 676.627615,228.417192 674.23116,225.101322 L695.151311,213.022888 C697.692054,216.318274 700.440689,219.365642 703.369263,222.134147 Z M160.003,161.723 L160.003,175.579 L61.445646,232.483741 C57.611277,230.366995 53.9532667,227.83746 50.5117246,224.939401 L160.003,161.723 Z M1199.003,199.25 L1199.003,213.106 L1175.003,226.963 L1175.003,213.107 L1199.003,199.25 Z M610.994103,152.565453 L611.003635,154.000152 L611.003635,164.609 L503.591159,226.624969 C500.336179,224.086706 497.258861,221.226905 494.390755,218.080385 L610.95557,150.781705 C610.973314,151.374671 610.986174,151.969271 610.994103,152.565453 Z M403.685111,145.740913 L264.003,226.386 L264.003,212.53 L401.884329,132.924933 C402.737993,137.08019 403.345302,141.359961 403.685111,145.740913 Z M159.834095,147.965699 L41.7035058,216.168014 C39.1297097,213.154392 36.7401474,209.901564 34.5597603,206.437057 L158.288355,135.000973 C159.062024,139.209045 159.58438,143.538467 159.834095,147.965699 Z M240.003,170.961 L240.003,184.817 L185.989216,216.003019 C184.888012,212.059979 184.215476,207.779197 184.046068,203.268966 L240.003,170.961 Z M688.506505,203.002696 L667.73679,214.993883 C665.77352,211.543104 663.972884,207.956301 662.347056,204.248956 L683.274,192.166629 C684.805748,195.947437 686.557148,199.56744 688.506505,203.002696 Z M455.237999,199.116276 L428.003,214.839 L428.003,200.983 L451.428079,187.459071 C452.513055,191.44622 453.786978,195.336976 455.237999,199.116276 Z M885.003,186.549 L885.003,200.405 L861.003,214.261 L861.003,200.405 L885.003,186.549 Z M8.02326523,207.900058 L0.001,212.531 L0.001,198.675 L3.35446598,196.740361 C4.73432578,200.574127 6.29456854,204.299082 8.02326523,207.900058 Z M1035.003,183.085 L1035.003,196.941 L1011.003,210.797 L1011.003,196.941 L1035.003,183.085 Z M609.736218,137.628999 L486.922925,208.534945 C484.728832,205.26365 482.726262,201.788417 480.937889,198.13427 L607.016513,125.342033 C608.160237,129.308114 609.073718,133.411399 609.736218,137.628999 Z M1199.003,171.538 L1199.003,185.394 L1175.003,199.25 L1175.003,185.394 L1199.003,171.538 Z M398.635408,120.94405 L264.003,198.673 L264.003,184.817 L394.015661,109.756453 C395.766796,113.322467 397.313757,117.059441 398.635408,120.94405 Z M155.273121,122.885175 L28.8664052,195.867184 C27.2107428,192.237358 25.7627286,188.442632 24.5433211,184.506135 L150.879979,111.566224 C152.558126,115.18065 154.029504,118.961356 155.273121,122.885175 Z M679.406219,180.543385 L658.038088,192.879923 C656.780183,188.977503 655.706435,184.971424 654.828754,180.876828 L676.941543,168.11054 C677.514783,172.372977 678.343278,176.524915 679.406219,180.543385 Z M240.003,143.248 L240.003,157.104 L184.003,189.436 L184.003,175.58 L240.003,143.248 Z M448.740284,175.154181 L428.003,187.126 L428.003,173.27 L447.258208,162.153785 C447.534354,166.561282 448.032586,170.900095 448.740284,175.154181 Z M602.906708,113.858256 L476.331645,186.937793 C475.024374,183.079108 473.939284,179.075212 473.097045,174.948912 L597.431182,103.164309 C599.459357,106.546417 601.291853,110.119145 602.906708,113.858256 Z M885.003,158.836 L885.003,172.692 L861.003,186.549 L861.003,172.693 L885.003,158.836 Z M1035.003,155.372 L1035.003,169.228 L1011.003,183.084 L1011.003,169.228 L1035.003,155.372 Z M145.113678,101.037016 L21.6014007,172.3483 C20.8530266,168.124159 20.3574982,163.779675 20.1362001,159.338446 L137.890439,91.352213 C140.490396,94.3478294 142.906519,97.5853421 145.113678,101.037016 Z M1199.00364,154.000152 L1199.003,157.681 L1175.003,171.537 L1175.003,157.681 L1198.62357,144.045165 C1198.87519,147.326113 1199.00364,150.646677 1199.00364,154.000152 Z M388.014812,99.3618515 L264.003,170.961 L264.003,157.105 L380.531566,89.8268742 C383.217222,92.7637088 385.720235,95.951523 388.014812,99.3618515 Z M676.003635,154.000152 L676.009,154.791 L652.780346,168.202818 C652.295924,163.805455 652.033446,159.330016 652.006031,154.79318 L676.869425,140.437035 C676.299877,144.849656 676.003635,149.379132 676.003635,154.000152 Z M590.523205,93.2949604 L471.311619,162.12233 C471.107893,159.450677 471.003635,156.741524 471.003635,154.000152 C471.003635,152.10355 471.053538,150.222368 471.151758,148.358357 L581.99785,84.3615799 C585.028358,87.0585069 587.879804,90.0469628 590.523205,93.2949604 Z M240.003,115.535 L240.003,129.391 L184.003,161.723 L184.003,147.867 L240.003,115.535 Z M447.124632,148.373312 L428.003,159.413 L428.003635,154.000152 C428.003635,151.21302 427.914911,148.448622 427.740489,145.710807 L448.60771,133.659396 C447.840311,138.46539 447.339933,143.377681 447.124632,148.373312 Z M885.404005,144.746777 L861.003,158.836 L861.003,144.98 L887.900976,129.449972 C886.706997,134.37208 885.862329,139.484638 885.404005,144.746777 Z M840.47,156.834 L840.56572,158.279281 L837.978,158.273 L840.47,156.834 Z M839.582292,143.49176 L814.067,158.221 L790.158,158.17 L837.8811,130.616858 C838.657611,134.824477 839.228902,139.121206 839.582292,143.49176 Z M783.752,134.155 L807.662,134.207 L766.247,158.118 L742.338,158.066 L783.752,134.155 Z M735.931,134.052 L759.841,134.103 L718.427,158.014 L712.056251,158.000124 L712.078,147.823 L735.931,134.052 Z M1035.7909,141.060284 L1011.003,155.372 L1011.003,141.515 L1038.98535,125.360795 C1037.53639,130.38907 1036.45749,135.637775 1035.7909,141.060284 Z M128.985417,82.6353436 L20.3527881,145.355223 C20.7784319,140.117026 21.5866569,135.024857 22.7411708,130.118768 L117.921374,75.1678372 C121.79933,77.2515777 125.500967,79.7557802 128.985417,82.6353436 Z M1196.97149,131.141969 L1174.54406,144.090792 C1174.13791,139.743132 1173.46783,135.499235 1172.55486,131.382316 L1194.1282,118.927307 C1195.26888,122.904687 1196.22064,126.981325 1196.97149,131.141969 Z M371.310449,81.2930998 L264.579659,142.914787 C265.139418,137.573875 266.09808,132.394119 267.416132,127.419126 L359.803967,74.0806083 C363.830406,76.0532625 367.680435,78.4734678 371.310449,81.2930998 Z M680.189107,124.663378 L652.701396,140.533691 C653.246852,135.304992 654.105902,130.184936 655.256624,125.201396 L687.68297,106.481617 C684.632115,112.104337 682.103859,118.198364 680.189107,124.663378 Z M240.003,87.823 L240.003,101.679 L184.003,134.01 L184.003,120.154 L240.003,87.823 Z M571.444221,76.5973726 L473.022274,133.421222 C474.188102,127.599166 475.836919,122.018584 477.910978,116.743207 L557.911856,70.5530117 C562.620004,71.9998191 567.150465,74.036316 571.444221,76.5973726 Z M452.234824,117.710578 L426.245251,132.715886 C425.544295,128.529335 424.64043,124.425067 423.545697,120.418392 L459.135265,99.8676064 C456.402923,105.527025 454.087271,111.494396 452.234824,117.710578 Z M893.856409,112.155043 L861.003,131.123 L861.003,117.267 L908.417232,89.8908873 C902.625003,96.2389707 897.684886,103.755826 893.856409,112.155043 Z M834.99277,118.428018 L813.441395,130.870674 C812.513881,126.784432 811.347671,122.827956 809.96375,119.023093 L830.990932,106.882897 C832.503563,110.620568 833.841541,114.473802 834.99277,118.428018 Z M1046.23467,107.318335 L1011.003,127.659 L1011.003,113.803 L1068.93038,80.3566086 C1059.82831,87.1087225 1052.04295,96.338897 1046.23467,107.318335 Z M0.000533318135,122.155401 L0,115.537 L2.3439425,114.184509 C1.47887362,116.795648 0.696532525,119.454144 0.000533318135,122.155401 Z M1190.17049,107.355869 L1169.13209,119.50217 C1167.75188,115.646608 1166.14805,111.942209 1164.34188,108.412445 L1185.13046,96.4092007 C1186.9798,99.9331888 1188.66382,103.58718 1190.17049,107.355869 Z M90.0036355,68.0001524 L91.1459089,68.0115474 C95.3641979,68.0957463 99.5020102,68.6454043 103.524383,69.6219369 L28.5048353,112.935868 C32.146824,104.74677 36.8395357,97.377408 42.3470387,91.0881547 L81.1364787,68.6925833 C84.0450944,68.2355366 87.0049578,68.0001524 90.0036355,68.0001524 Z M334.003635,68.0001524 C337.602805,68.0001524 341.146059,68.3392482 344.611898,68.9937137 L273.984036,109.771727 C278.520078,100.530206 284.427214,92.4363449 291.337709,85.8959694 L318.747086,70.0717313 C323.311502,68.813916 328.03373,68.1079091 332.861362,68.0115474 L334.003635,68.0001524 Z M608.116,0 L530.801514,44.6344258 C508.022076,47.4863928 487.827309,59.7837171 472.973083,78.0225693 L419.724726,108.768185 C418.264167,104.975794 416.625186,101.295923 414.819778,97.7438209 L584.116,0 L608.116,0 Z M767.108682,46.7683707 L660.44383,108.351721 C663.134227,101.443023 666.417871,94.911242 670.221777,88.8491699 L747.866834,44.0211786 C754.475733,44.1704738 760.91138,45.112361 767.108682,46.7683707 Z M825.904572,95.9621173 L805.11718,107.964155 C803.242276,104.349606 801.154889,100.922917 798.878622,97.7086582 L819.723499,85.674811 C821.945269,88.9571974 824.009943,92.3915035 825.904572,95.9621173 Z M240.003,60.11 L240.003,73.966 L184.003,106.298 L184.003,92.441 L240.003,60.11 Z M955.003635,44.0001524 C957.752522,44.0001524 960.484057,44.1382076 963.192397,44.4112067 L861.003,103.41 L861.003,89.554 L885.003,75.698 L885.003635,80.5201524 L885.361816,80.051315 C887.874385,76.8070964 890.551267,73.7384121 893.378001,70.8636471 L936.071415,46.2138832 C941.683632,44.8799187 947.486237,44.1277378 953.433869,44.0150159 L955.003635,44.0001524 Z M10.2046995,95.7890111 L0,101.68 L0,87.824 L27.1205785,72.1656336 C20.5783474,79.0623244 14.8770091,87.016516 10.2046995,95.7890111 Z M1105.00364,44.0001524 C1105.94566,44.0001524 1106.88417,44.0161854 1107.819,44.048025 L1011.003,99.946 L1011.003,86.09 L1035.003,72.234 L1035.00364,80.5201524 L1035.36182,80.051315 C1041.24678,72.4526712 1048.03316,65.8169994 1055.53514,60.3805364 L1071.5996,51.1048061 C1081.49038,46.7205422 1092.20359,44.2278565 1103.43387,44.0150159 L1105.00364,44.0001524 Z M1178.99846,86.092883 L1158.16383,98.1209307 C1155.80222,94.7419079 1153.23244,91.592061 1150.48082,88.7004584 L1171.71911,76.4398344 C1174.30281,79.4878333 1176.73381,82.7112935 1178.99846,86.092883 Z M538.21382,68.0682194 L489.030873,96.4650552 C501.337187,79.7378746 518.872354,69.013227 538.21382,68.0682194 Z M812.38892,76.05209 L791.12451,88.3288072 C788.137722,85.2341793 784.941847,82.442963 781.570818,79.9904814 L803.784142,67.1650524 C806.806515,69.9222408 809.680067,72.8909664 812.38892,76.05209 Z M560.116,0 L408.826326,87.3474983 C406.611434,83.9405855 404.229833,80.6884596 401.694996,77.6082509 L536.116,0 L560.116,0 Z M160.003,78.585 L160.003635,80.5211524 L159.645455,80.051315 L158.966622,79.1841331 L160.003,78.585 Z M611.003,67.615 L611.003635,80.5211524 L610.645455,80.051315 C608.426914,77.186745 606.080268,74.4590299 603.61547,71.8808263 L611.003,67.615 Z M264.361816,80.051315 L264.003635,80.5201524 L264.003,73.966 L276.977455,66.4760669 C272.423062,70.5476783 268.200658,75.0946183 264.361816,80.051315 Z M1163.1751,67.5164165 L1141.01381,80.3098665 C1137.26739,77.5372566 1133.29846,75.1841921 1129.15298,73.3013915 L1153.15454,59.443212 C1156.65053,61.8842927 1159.99678,64.5830721 1163.1751,67.5164165 Z M320.116,0 L184.003,78.585 L184.003,64.729 L296.116,0 L320.116,0 Z M994.816,67.723 L987.945158,78.1481341 C986.138908,76.9574905 984.296103,75.8678501 982.420979,74.8812203 L994.816,67.723 Z M885.003635,60 L885.003,61.841 L861.003,75.698 L861.003,61.842 L864.193,60 L885.003635,60 Z M102.003,1.22 L102.003,15.076 L0,73.968 L0,60.112 L62.547,24 L78.0036355,24.0001524 L78.003,15.077 L102.003,1.22 Z M793.691859,59.1341426 L769.583025,73.0525005 C764.446706,70.7809985 759.0495,69.2302028 753.480585,68.4929407 L781.725437,52.1856306 C785.873022,54.175114 789.869903,56.5010178 793.691859,59.1341426 Z M1141.27959,52.4420623 L1113.28726,68.6039673 C1110.56659,68.2051412 1107.80201,68.0001524 1105.00364,68.0001524 C1097.02236,68.0001524 1089.31605,69.6676376 1082.11915,72.7438862 L1126.7961,46.9484325 C1131.79607,48.3288484 1136.63498,50.1741471 1141.27959,52.4420623 Z M1032.192,60 L1011.003,72.234 L1011.00364,60.0001524 L1032.192,60 Z M272.116,0 L168.193,60 L160.003635,60.0001524 L160.003,64.728 L150.807271,70.0373475 C147.782175,67.0316507 144.590462,64.2455817 141.249327,61.701 L248.116,0 L272.116,0 Z M994.433019,54.0879322 L967.829811,69.4470661 C963.636206,68.4885326 959.347994,68.0001524 955.003635,68.0001524 C951.516059,68.0001524 948.080985,68.3185467 944.717973,68.9337484 L980.711735,48.1535665 C985.417596,49.7110941 990.003206,51.6955266 994.433019,54.0879322 Z M512.116,0 L393.316963,68.5872299 C390.205971,65.6230105 386.927727,62.8866567 383.499967,60.4007192 L488.116,0 L512.116,0 Z M611.003,39.902 L611.003,53.758 L594.367603,63.3627094 C590.904388,60.5653117 587.270145,58.0324837 583.485175,55.790037 L611.003,39.902 Z M368.116,0 L264.003,60.11 L264.003635,60.0001524 L240.193,60 L344.116,0 L368.116,0 Z M224.116,0 L129.969943,54.3549399 C125.612696,51.9629181 121.068118,49.9500577 116.365634,48.3537703 L200.116,0 L224.116,0 Z M464.116,0 L371.887721,53.2481359 C367.370698,50.9249713 362.662529,49.0047458 357.794709,47.5275033 L440.116,0 L464.116,0 Z M611.003,12.19 L611.003,26.046 L570.440857,49.4654219 C565.188612,47.4498179 559.725005,45.9593209 554.092944,45.0484836 L611.003,12.19 Z M416.116,0 L339.575293,44.188226 C338.249054,44.0983981 336.914917,44.0404408 335.573402,44.0150159 L334.003635,44.0001524 L332.433869,44.0150159 C324.427015,44.166765 316.682995,45.4774206 309.312487,47.8062662 L392.116,0 L416.116,0 Z M54.003,1.22 L54.003,15.076 L0,46.255 L0,32.399 L54.003,1.22 Z M176.116,0 L99.0456558,44.4976108 C96.0725363,44.1685392 93.0565102,44.0001524 90.0036355,44.0001524 C84.0879646,44.0001524 78.3106545,44.6324157 72.7157804,45.8409044 L110.547,24 L126.003635,24.0001524 L126.003,15.077 L152.116,0 L176.116,0 Z M32.116,0 L0,18.542 L0.000533318135,16.0001524 C0.000533318135,7.16359643 7.16707947,0 16.0036355,0 L32.116,0 Z M80.116,0 L78.003,1.22 L78.0035333,0.000152422707 L80.116,0 Z M128.116,0 L126.003,1.22 L126.003533,0.000152422707 L128.116,0 Z" id="logo-light" fill="#FFFFFF"></path>
                <path d="M475.936505,562.388306 L475.968024,562.39926 L475.968,575.127158 L225.867967,719.52375 C220.872659,718.599613 215.837811,716.922464 210.438114,714.574693 L405.18047,602.140123 C428.363122,592.103562 447.747552,583.538783 456.515353,579.065066 L457.307732,578.656831 L457.307732,578.39671 L458.339717,577.858282 L459.35627,577.318416 C470.368979,571.415366 475.795064,566.675676 475.936505,562.388306 Z M475.968,588.983158 L475.968,602.840158 L361.262,669.065158 L346.527666,675.412565 C313.838127,689.52107 283.873254,702.626473 272.005177,708.847459 C265.903335,712.045911 260.411503,714.53632 255.328674,716.369596 L475.968,588.983158 Z M310.223195,643.107546 L196.994174,708.486107 C193.140752,706.79946 188.499735,704.802829 183.245002,702.564403 L236.160569,672.010353 C246.263662,671.678585 257.086157,668.196776 271.167092,661.024261 L272.420503,660.382034 C279.740231,656.644864 293.426039,650.469935 310.223195,643.107546 Z M205.227879,663.990391 L206.967106,664.810692 C210.570486,666.504689 213.99232,667.918384 217.320767,669.033004 L169.399845,696.701952 C164.992003,694.844332 160.339695,692.890264 155.507476,690.865062 L203.460132,663.178399 C204.09838,663.468351 204.688348,663.739297 205.227879,663.990391 Z M189.814561,657.19997 L141.590802,685.042231 C137.028049,683.135713 132.369839,681.191299 127.662092,679.226997 L175.998737,651.319544 C181.058148,653.458687 185.702718,655.434261 189.814561,657.19997 Z M148.2,639.656158 L156.194701,642.991277 C158.203924,643.832839 160.181286,644.661811 162.122096,645.476353 L113.730356,673.415161 C109.076098,671.473592 104.417479,669.529872 99.7974097,667.600827 L148.2,639.656158 Z M120.337,628.030158 L134.269,633.843158 L85.8759163,661.782561 C81.1323385,659.797716 76.4801566,657.848222 71.9697179,655.953822 L120.337,628.030158 Z M96.8935106,618.248691 L106.406,622.217158 L58.0937753,650.10906 C53.184136,648.033923 48.5478189,646.065285 44.2681184,644.235808 L92.4744896,616.404538 C93.9416405,617.01699 95.4151217,617.631894 96.8935106,618.248691 Z M475.968,505.844158 L475.968,519.701158 L329.764792,604.112901 C305.009044,614.81999 283.639602,624.239789 273.281861,629.446568 L272.005177,630.095785 C260.127546,636.21279 250.584144,639.743979 241.873259,641.000274 L475.968,505.844158 Z M475.929743,483.960127 L475.968024,483.972738 L475.968,491.989158 L220.537971,639.462577 C216.241842,638.238881 211.828982,636.486858 207.097104,634.248391 L206.257,633.849158 L374.31058,536.823911 C410.898038,521.108413 445.541121,506.158666 457.307732,500.002703 L457.307732,499.905157 L458.343322,499.365991 L459.378753,498.816793 C470.252815,492.992416 475.672705,488.241525 475.929743,483.960127 Z M78.5530195,610.586008 L30.5359335,638.303032 C26.1966003,636.400572 22.6454371,634.806012 20.0713153,633.59342 L19.2785008,633.217239 C18.54261,632.871758 17.8275259,632.529204 17.1332994,632.189472 L64.6513597,604.754868 C69.1235677,606.635481 73.775831,608.586411 78.5530195,610.586008 Z M272.918,581.507158 L192.705348,627.819373 C188.669176,626.079631 184.020486,624.100917 178.894059,621.93565 L228.855893,593.091077 C241.175725,594.549577 253.650021,591.32586 271.167092,582.402657 L272.886384,581.523625 L272.918,581.507158 Z M50.7868855,598.903636 L5.29561133,625.168007 C1.79832051,622.421399 0.0309600603,619.841446 0.0309600603,617.34985 L0.03,614.351158 L36.9871585,593.014135 C41.1425519,594.803345 45.7781113,596.780513 50.7868855,598.903636 Z M205.618603,585.550402 L206.967106,586.190035 C208.874726,587.089536 210.731466,587.909999 212.550406,588.648702 L165.005707,616.099291 C160.554169,614.236209 155.890682,612.290257 151.075076,610.284704 L199.052537,582.58559 C201.731244,583.765713 203.944712,584.763652 205.618603,585.550402 Z M185.318748,576.658037 L137.124136,604.48316 C135.288802,603.720837 133.440808,602.953531 131.583028,602.182361 L123.163,598.686158 L171.465129,570.799111 C176.454102,572.897674 181.104908,574.863499 185.318748,576.658037 Z M19.2785008,585.159859 L20.441516,585.705757 L22.4485521,586.627771 C22.739562,586.760078 23.0386951,586.895568 23.3457957,587.034179 L0.03,600.495158 L0.03,586.638158 L10.5368242,580.571908 C13.0150024,582.045537 15.9292721,583.571054 19.2785008,585.159859 Z M143.622,559.161158 L151.614921,562.487175 C153.625791,563.326329 155.609512,564.15479 157.561687,564.970843 L109.204,592.889158 L95.244,587.092158 L143.622,559.161158 Z M115.729,547.552158 L129.676,553.357158 L81.285,581.295158 L80.6361719,581.026762 C76.0884243,579.132357 71.6452389,577.278246 67.353109,575.482511 L115.729,547.552158 Z M0.0309600603,569.625816 C0.121875827,570.496736 0.416903599,571.377577 0.915684542,572.271951 L0.03,572.782158 L0.0309600603,569.625816 Z M87.836,535.943158 L101.783,541.748158 L53.4583048,569.648804 C48.4816492,567.550518 43.8378618,565.581081 39.624168,563.778305 L87.836,535.943158 Z M457.307732,548.157628 L456.556139,548.545952 C450.418,551.687817 439.031941,556.848706 424.764067,563.120787 L475.529545,533.811513 C473.973315,538.007603 468.215098,542.415863 457.307732,548.157628 Z M475.904,422.743158 L475.904,436.600158 L317.225319,528.214875 C297.257735,536.913112 280.733553,544.295216 272.420503,548.530412 L272.005177,548.7429 C258.383592,555.742421 247.832012,559.356062 238.085375,560.049185 L475.904,422.743158 Z M73.9105532,530.128483 L25.9297847,557.828979 C23.6322429,556.807556 21.6644949,555.914032 20.0713541,555.165835 L19.2785008,554.790717 C16.91916,553.67103 14.7736831,552.584778 12.8437508,551.527421 L60.0098151,524.296432 C64.4539464,526.167088 69.1072711,528.118809 73.9105532,530.128483 Z M475.90463,402.989158 L475.904,408.888158 L218.474616,557.516287 C215.029438,556.420469 211.490325,554.996825 207.755978,553.266165 L205.380878,552.149134 L204.482,551.736158 L362.445,460.536158 L390.441917,448.479625 L409.742201,440.127622 C431.597721,430.631978 449.495181,422.689499 457.307732,418.682333 L457.307732,418.584787 L458.365847,418.032566 C469.65804,412.086094 475.404684,407.300295 475.90463,402.989158 Z M257.944132,507.014856 L190.853846,545.750112 C186.762304,543.994376 182.112955,542.019855 177.02896,539.874657 L226.454866,511.338003 C236.238287,512.954027 245.918812,511.674871 257.944132,507.014856 Z M46.157801,518.437836 L2.21166981,543.81043 C0.760978689,542.112568 0.0306504143,540.470829 0.0306504143,538.858297 L0.03,531.212158 L32.3949922,512.52593 C36.4288802,514.281461 41.0602022,516.269156 46.157801,518.437836 Z M205.60392,504.192509 L206.304044,504.522307 C207.823204,505.244151 209.309549,505.916687 210.769563,506.53863 L163.137914,534.038712 C158.675989,532.1707 154.014683,530.224262 149.211961,528.222039 L197.281493,500.46889 C200.757192,501.985955 203.575199,503.244351 205.60392,504.192509 Z M183.520021,494.558516 L135.266,522.417158 L121.317,516.613158 L169.657387,488.704294 C174.622339,490.791277 179.274171,492.754814 183.520021,494.558516 Z M18.9076762,506.45787 L0.03,517.357158 L0.03,503.500158 L6.79577857,499.594164 C9.82265661,501.755136 13.8610193,504.028501 18.9076762,506.45787 Z M141.817,477.064158 L148.805876,479.975446 C151.157091,480.956724 153.474785,481.924736 155.752174,482.876823 L107.369,510.810158 L93.419,505.007158 L141.817,477.064158 Z M113.933,465.451158 L127.875,471.258158 L79.4751452,499.201993 C74.697869,497.207284 70.0413134,495.259202 65.5600239,493.37905 L113.933,465.451158 Z M90.2819201,455.60092 L99.991,459.644158 L51.6833405,487.535273 C46.68616,485.421358 42.0479663,483.446854 37.8721718,481.652154 L86.0510752,453.835694 C87.4538592,454.421208 88.8645742,455.009786 90.2819201,455.60092 Z M457.307732,466.772228 L455.879994,467.505822 L455.555997,467.669176 L454.883317,468.005382 C446.493943,472.175524 430.877387,479.126336 412.087756,487.301071 L475.898859,450.460927 C475.684001,455.340172 469.960138,460.143569 457.307732,466.772228 Z M72.1321282,448.016292 L24.2175899,475.679908 C22.450438,474.885332 20.9195058,474.182702 19.6505898,473.582094 L18.2309871,472.908771 L17.1978495,472.409104 C15.0189359,471.344218 13.044708,470.306991 11.2767323,469.293959 L58.2403367,442.180349 C62.6699343,444.047457 67.3208549,446.000735 72.1321282,448.016292 Z M44.3968718,436.316474 L1.27026056,461.215374 C0.445479351,459.953792 0.0309600603,458.720277 0.0309600603,457.505412 L0.03,448.074158 L30.6486549,430.396791 C34.6234975,432.132791 39.2541718,434.124803 44.3968718,436.316474 Z M17.2288046,424.28903 L0.03,434.218158 L0.03,420.361158 L5.43221079,417.242585 C8.26208691,419.465933 12.1958001,421.799188 17.2288046,424.28903 Z" id="Combined-Shape" fill="#A32422" fill-rule="nonzero"></path>
                <path d="M457.307732,548.157628 L456.569799,548.545829 L457.015149,548.710385 C460.78401,550.09969 464.002369,551.450864 466.659015,552.790303 L310.220579,643.108692 C293.424618,650.470576 279.739851,656.645058 272.420503,660.382034 L272.005177,660.594988 C257.51515,668.057382 246.465087,671.671411 236.163226,672.010266 L424.772027,563.117288 C439.640508,556.581123 451.378499,551.252035 457.307732,548.157628 Z M329.755759,604.116808 L217.32012,669.032787 C213.991876,667.918201 210.570253,666.504579 206.967106,664.810692 L206.304044,664.496805 C205.506565,664.116706 204.557209,663.676829 203.466758,663.181409 L241.874027,641.000163 C250.376804,639.773758 259.672827,636.379874 271.158705,630.52935 L272.005177,630.095785 C281.803602,625.049577 303.937431,615.283517 329.755759,604.116808 Z M206.258592,633.848602 L206.434081,633.932572 C211.417556,636.322445 216.041338,638.181713 220.537266,639.462376 L189.820116,657.202355 C185.708147,655.436575 181.063242,653.460848 176.003337,651.321489 L206.258592,633.848602 Z M192.706898,627.820042 L162.123878,645.477101 C157.661263,643.604177 153.005386,641.654953 148.213271,639.651824 L178.898247,621.937419 C184.023674,624.102272 188.671465,626.080612 192.706898,627.820042 Z M165.007313,616.099963 L134.283828,633.836201 C129.692743,631.921207 125.032285,629.978629 120.346629,628.025816 L151.076802,610.285422 C155.892375,612.290962 160.555822,614.236899 165.007313,616.099963 Z M137.124179,604.483178 L106.407269,622.216145 C101.729909,620.266278 97.0709392,618.323295 92.4741137,616.404381 L123.161828,598.687783 C127.865159,600.639085 132.534259,602.57671 137.124179,604.483178 Z M109.195647,592.893957 L78.5510058,610.585165 C73.7743803,608.585803 69.1226604,606.6351 64.6509575,604.754699 L95.2333866,587.098084 C99.8485475,589.015259 104.51716,590.952866 109.195647,592.893957 Z M457.307732,578.39671 L457.307732,578.656831 L456.515353,579.065066 L455.441659,579.606914 L454.309929,580.167286 C444.747155,584.863247 426.582869,592.87429 405.181507,602.139674 L475.863026,561.331692 C476.699786,566.152111 470.665004,571.486517 457.307732,578.39671 Z M81.2821556,581.29583 L50.782514,598.901783 C45.7735014,596.778551 41.1378023,594.801314 36.9823977,593.012085 L67.3501686,575.48128 C71.846212,577.362331 76.5080217,579.307442 81.2821556,581.29583 Z M453.218656,468.823356 L455.04816,469.503995 L457.015149,470.218833 C458.886949,470.889044 460.622962,471.553049 462.221815,472.213692 L272.904798,581.514307 C272.898656,581.517415 272.892518,581.520521 272.886384,581.523625 L272.005177,581.973375 C254.045772,591.222506 241.370812,594.57286 228.855165,593.09099 L412.090852,487.299724 C429.699406,479.63882 444.520955,473.052923 453.218656,468.823356 Z M317.216313,528.218798 L212.550614,588.648787 C210.731608,587.910062 208.874799,587.089571 206.967106,586.190035 L205.618603,585.550402 L204.334949,584.954174 L202.561695,584.147546 C201.503094,583.670386 200.330405,583.148561 199.051712,582.585226 L238.086858,560.049079 C247.630242,559.370127 257.945445,555.891216 271.158705,549.175509 L272.849962,548.312508 L274.433317,547.522286 L276.543985,546.4933 C285.600573,542.125633 300.150381,535.653071 317.216313,528.218798 Z M53.4568595,569.648195 L23.3375407,587.030453 C21.7697269,586.322771 20.4098031,585.696526 19.2785008,585.159859 C15.9292177,583.571028 13.0149078,582.045488 10.5367035,580.571837 L39.6205045,563.776738 C43.8347622,565.579765 48.4793078,567.549529 53.4568595,569.648195 Z M205.269831,552.097513 L206.434081,552.644717 C210.658642,554.658255 214.624721,556.29167 218.47355,557.515947 L185.319123,576.658197 C181.105518,574.863758 176.454988,572.898048 171.466316,570.79961 L204.485684,551.73566 C204.757591,551.860401 205.019043,551.981046 205.269831,552.097513 Z M19.1730857,554.743505 L19.2785008,554.790717 C20.9928261,555.608365 23.2327328,556.629921 25.9260004,557.827296 L0.915177683,572.271042 C-2.41560887,566.296949 3.34475788,560.926649 18.3032242,555.083353 L19.1730857,554.743505 Z M190.852762,545.749662 L157.560432,564.970318 C153.066132,563.0916 148.404637,561.14712 143.629614,559.157818 L177.029583,539.874977 C182.112886,542.019863 186.76165,543.994122 190.852762,545.749662 Z M149.203592,528.225602 L156.155671,531.119461 C158.529323,532.110774 160.85874,533.084667 163.136216,534.038131 L129.682592,553.351602 L115.734592,547.549602 L149.203592,528.225602 Z M121.308592,516.618602 L135.255592,522.421602 L101.784592,541.746602 L87.8355922,535.943602 L121.308592,516.618602 Z M457.307732,499.905157 L457.307732,500.002703 C445.542073,506.158168 410.903642,521.105995 374.319459,536.820098 L474.013366,479.261949 C479.219922,485.04187 473.94167,491.321076 457.307732,499.905157 Z M93.4135922,505.010602 L107.360592,510.814602 L73.9155922,530.123602 L66.4639874,527.008652 C64.2697609,526.087989 62.1162274,525.183078 60.0096954,524.296382 L93.4135922,505.010602 Z M79.47267,499.202377 L46.1562397,518.437172 C41.0593009,516.268769 36.428549,514.281317 32.3950975,512.525976 L65.557633,493.379912 C70.0388825,495.259886 74.6954103,497.20781 79.47267,499.202377 Z M455.412558,388.272584 L457.015149,388.865948 C458.185831,389.295946 459.303398,389.722487 460.367514,390.146342 L257.940314,507.016336 C245.917174,511.674982 236.237914,512.953768 226.45587,511.338169 L445.883051,384.652619 C449.722173,386.127472 452.943394,387.352234 455.412558,388.272584 Z M431.513323,379.091597 L210.768968,506.538376 C209.522227,506.007276 208.256285,505.439283 206.967106,504.8352 L205.391142,504.093273 C203.380274,503.157353 200.638085,501.933975 197.282963,500.469532 L239.049592,476.353602 L247.792986,480.000152 L257.471592,465.717602 L417.190586,373.504366 C422.273471,375.491667 427.078668,377.36661 431.513323,379.091597 Z M51.6799277,487.536277 L18.9075922,506.457602 L18.5346265,506.277684 C13.6617184,503.916019 9.7478307,501.701697 6.79592267,499.594267 L37.8683957,481.65378 C42.0442168,483.448211 46.6825395,485.422511 51.6799277,487.536277 Z M211.180592,464.730602 L225.114592,470.541602 L183.519227,494.558179 C179.273881,492.754693 174.622666,490.791416 169.658406,488.704723 L211.180592,464.730602 Z M22.5877543,474.947346 L24.2135922,475.680602 L0.0902271985,489.608357 C0.814314188,485.33794 6.62820381,481.2695 17.5676312,476.914567 L22.5877543,474.947346 Z M183.311592,453.107602 L197.245592,458.919602 L155.750592,482.876602 L155.330267,482.700451 L141.816592,477.064602 L183.311592,453.107602 Z M299.110592,372.394602 L127.879592,471.254602 L113.936592,465.448602 L244.279592,390.195602 L249.53262,399.000152 L255.974592,383.443602 L269.786592,375.468602 L299.110592,372.394602 Z M457.307732,418.584787 L457.307732,418.682333 L456.515353,419.08487 C446.629377,424.062607 423.246178,434.307587 396.139695,446.019657 L362.425592,460.547602 L472.79411,396.827364 C479.890661,402.952268 475.082762,409.389131 457.307732,418.584787 Z M141.0168,430.000152 C144.781766,430.000152 148.466679,429.860987 152.039481,429.595206 L99.9915922,459.642602 L88.4640576,454.842624 C87.6576101,454.506172 86.8535092,454.170625 86.0519974,453.836079 L128.277498,429.457197 C132.383111,429.812623 136.646313,430.000152 141.0168,430.000152 Z M109.522111,426.4282 L72.1317592,448.016137 C67.3206296,446.00064 62.6698452,444.047419 58.2403712,442.180364 L94.6215819,421.175393 C98.7825814,423.237 103.824866,425.017379 109.522111,426.4282 Z M360.034592,351.076602 L374.320592,356.685602 L232.692592,438.453602 L199.939592,443.507602 L360.034592,351.076602 Z M388.606592,362.293602 L402.891592,367.902602 L272.898592,442.953602 L281.000533,431.000152 L265.447592,433.399602 L388.606592,362.293602 Z M82.0005333,407.000152 C82.0005333,409.18155 82.7899629,411.294555 84.2630533,413.297886 L44.3967722,436.316432 C39.2539068,434.12469 34.6231023,432.132621 30.648179,430.396583 L86.6431705,398.06878 C83.6540181,400.818241 82.0005333,403.837306 82.0005333,407.000152 Z M169.868683,336.162748 L17.2278064,424.288536 C12.1951859,421.798833 8.26175269,419.465699 5.43205201,417.24246 L96.6205922,364.594602 L111.382467,358.83834 L147.048334,344.980567 C155.014741,341.894016 162.696463,338.925014 169.868683,336.162748 Z M22.3265922,393.631602 L0.937314646,405.980699 C3.07059389,402.398115 8.85023355,398.899067 18.3032242,395.2064 L22.3265922,393.631602 Z M225.675592,373.223602 L234.639382,374.036564 L238.130592,379.888602 L198.886991,402.547375 C197.310735,399.436855 194.116559,396.546696 189.660954,394.017806 L225.675592,373.223602 Z M257.906157,313.045977 L214.571592,338.064602 L211.876792,337.000152 L212.954592,338.998602 L134.788506,384.127518 C121.00937,384.694233 108.634768,387.119256 99.3360101,390.740922 L232.573134,313.816475 C241.939541,311.646402 249.425416,311.411523 257.906157,313.045977 Z M218.655592,349.563602 L222.57521,356.827065 L187.000533,369.717831 L204.932592,371.342602 L175.474972,388.351003 C170.074069,386.82795 163.989075,385.651975 157.436926,384.908822 L218.655592,349.563602 Z M345.749089,345.468282 L299.559592,372.135602 L285.035592,366.664602 L331.459467,339.862636 C336.108247,341.684796 340.889817,343.56078 345.749089,345.468282 Z M317.15673,334.263332 L270.510592,361.194602 L268.035353,360.262422 L274.327592,345.134602 L302.833495,328.677008 C307.282475,330.407268 312.086892,332.281525 317.15673,334.263332 Z M275.615838,318.263467 L277.506729,318.958271 L280.811229,320.196451 C283.003597,321.024444 285.572036,322.004766 288.464089,323.116177 L243.060592,349.329602 L228.816592,343.697602 L273.923109,317.655239 C274.479874,317.852884 275.043977,318.05563 275.615838,318.263467 Z" id="Combined-Shape" fill="#DC382C" fill-rule="nonzero"></path>
                <path d="M384.681,392.273 L398.859,397.944 L349.061,426.695 L349.044,412.848 L384.681,392.273 Z M413.036,403.614 L414.000533,404.000152 L408.676,406.132 L413.036,403.614 Z M356.326,380.931 L370.504,386.602 L349.027,399.002 L349.01,385.155 L356.326,380.931 Z" id="Combined-Shape" fill="#741113" fill-rule="nonzero"></path>
                <path d="M348.978533,412.885 L348.996533,426.732 L339.683533,432.109 L325.427533,426.483 L348.978533,412.885 Z M348.943533,385.193 L348.960533,399.04 L311.171533,420.857 L296.914533,415.232 L348.943533,385.193 Z M307.065533,395.515 L282.659533,409.606 L277.000533,407.373582 L307.065533,395.515 Z" id="Combined-Shape" fill="#AC2724" fill-rule="nonzero"></path>
                <path d="M826.351146,557.613213 C826.509358,561.422936 825.149938,565.139207 822.572961,567.941713 C822.313494,568.234586 822.021594,568.494917 821.729694,568.78779 C820.999438,569.466071 820.257909,570.12929 819.505584,570.77727 L793.883739,585.570192 C784.594911,588.814575 774.69799,590.331203 764.679443,589.939715 C763.881472,589.957118 763.084677,589.961666 762.289327,589.953476 L825.546959,553.431023 C826.016692,554.765186 826.291358,556.173505 826.351146,557.613213 Z M1006.222,532.256152 L1006.222,546.113152 L930.266503,589.96782 C929.202742,589.999062 928.136747,590.007711 927.069192,589.993557 C921.090821,590.0611 915.18038,589.424495 909.447004,588.129955 L1006.222,532.256152 Z M1198.4216,545.99848 L1125.33212,588.197187 C1119.71224,587.388031 1114.16376,585.965689 1108.68522,583.951242 L1198.46826,532.114605 C1199.18796,536.682784 1199.18306,541.369023 1198.4216,545.99848 Z M1006.222,559.968152 L1006.22261,572.357255 L1007.00053,572.357255 C1006.99118,572.71114 1006.97175,573.062486 1006.94252,573.411013 L981.703756,587.981679 C977.96032,586.091177 974.898139,582.983151 973.074642,579.105691 L1006.222,559.968152 Z M1178.73941,575.79745 C1170.07457,581.980763 1160.17579,586.102406 1149.79736,587.92718 L1190.9675,564.15718 C1187.71767,568.748587 1183.58066,572.716038 1178.73941,575.79745 Z M627.404,556.977152 L627.404,570.834152 L598.302775,587.637542 C597.939311,587.293706 597.590423,586.931321 597.257595,586.551029 C594.669317,584.020931 592.948813,580.764224 592.294931,577.247813 L627.404,556.977152 Z M1058.959,557.233152 L1058.959,571.090152 L1030.89618,587.293794 C1030.3155,586.803456 1029.76675,586.268308 1029.2553,585.690681 C1026.84665,583.361254 1025.18969,580.388744 1024.44866,577.159213 L1058.959,557.233152 Z M817.090263,544.457861 L743.039146,587.212152 C738.102606,585.832085 733.324064,583.946161 728.779668,581.587344 L771.199334,557.096906 C780.452843,556.962583 789.519868,554.004778 797.145219,548.514483 C800.626833,544.993811 805.40432,543.074092 810.34559,543.210231 C812.68474,543.099695 814.989656,543.537611 817.090263,544.457861 Z M1006.222,504.543152 L1006.222,518.400152 L894.330218,583.002263 C890.137152,581.069557 886.11564,578.754407 882.319082,576.079424 L920.687583,553.928649 C923.105478,554.372393 925.576902,554.597356 928.074006,554.590797 L928.074006,554.720954 C939.90296,554.965805 951.199831,549.792404 958.769456,540.663976 C962.827233,536.443188 965.941622,531.648695 968.112625,526.547256 L1006.222,504.543152 Z M1135.5454,554.023114 C1135.86006,554.033814 1136.17455,554.040578 1136.48878,554.043428 L1095.33234,577.804069 C1091.49031,575.675269 1087.68356,573.251653 1083.91152,570.540965 L1117.59645,551.093004 C1123.30362,553.112734 1129.37698,554.124636 1135.5454,554.023114 Z M752.039167,554.303285 L717.400447,574.301083 C714.109243,571.745306 711.014453,568.899854 708.156213,565.7821 L739.241122,547.834983 C743.153923,550.63765 747.471468,552.818675 752.039167,554.303285 Z M897.346142,540.533819 C899.986295,543.598619 903.037141,546.215742 906.381083,548.33139 L872.529043,567.87552 C871.977439,567.328665 871.433292,566.772567 870.896842,566.207328 C868.546589,563.846114 866.362148,561.350981 864.350646,558.740073 L896.830578,539.989027 C897.000707,540.17166 897.172561,540.353264 897.346142,540.533819 Z M627.404,529.264152 L627.404,543.121152 L592,563.562152 L592,549.705152 L627.404,529.264152 Z M1058.959,529.521152 L1058.959,543.378152 L1024.009,563.556152 L1024.009,549.699152 L1058.959,529.521152 Z M1099.41476,539.951044 C1101.1665,541.614539 1103.02345,543.142348 1104.9693,544.528118 L1074.68446,562.011626 C1073.33211,559.820851 1072.43525,557.358472 1072.07266,554.770592 C1071.90521,552.961607 1072.03226,551.172608 1072.42312,549.460934 L1093.89907,537.060947 C1095.86554,537.663877 1097.73903,538.63023 1099.41476,539.951044 Z M729.865998,539.391724 L700.380252,556.414544 C698.033394,553.154036 695.922133,549.743138 694.057399,546.208742 L723.295444,529.327763 C724.856919,533.036703 727.07793,536.449827 729.865998,539.391724 Z M889.810635,530.186167 L857.76634,548.686782 C855.823662,545.15841 854.15616,541.488223 852.77712,537.710053 L885.51046,518.810755 C886.433979,522.733882 887.86737,526.561017 889.810635,530.186167 Z M1191.95476,515.121802 C1193.04664,516.804011 1194.01512,518.549079 1194.85773,520.343567 L1163.76547,538.293351 C1163.75754,536.206591 1163.67834,535.443306 1162.8875,534.653705 C1162.8875,533.743733 1161.09724,532.021286 1158.46068,531.143813 C1157.4263,530.505234 1156.3757,529.896347 1155.31021,529.317615 L1188.5627,510.120233 C1189.80112,511.701105 1190.93533,513.371378 1191.95476,515.121802 Z M627.404571,511.901363 L627.404,515.409152 L592,535.849152 L592,521.992152 L629.008748,500.623868 C627.973852,504.214368 627.404571,507.984301 627.404571,511.901363 Z M1058.959,501.808152 L1058.959,515.665152 L1024.009,535.844152 L1024.009,521.987152 L1058.959,501.808152 Z M765.659,491.013152 L689.180013,535.168811 C687.779322,531.290328 686.653236,527.309075 685.813786,523.254657 L741.657,491.013152 L765.659,491.013152 Z M884.314262,505.645447 L849.456699,525.770928 C848.62367,521.498052 848.14162,517.140064 848.027187,512.739328 L887.954669,489.685863 C885.798565,494.78982 884.585096,500.198495 884.314262,505.645447 Z M1170.79718,496.597367 C1173.9061,497.894127 1176.83671,499.533376 1179.54055,501.472694 L1141.14291,523.641686 C1138.40804,522.900766 1135.62188,522.335942 1132.80133,521.95315 L1131.99744,521.849096 C1129.03557,521.422833 1126.10081,520.853176 1123.20324,520.14341 L1166.9396,494.891136 C1168.23449,495.437517 1169.52055,496.006321 1170.79718,496.597367 Z M837.131301,477.462274 L763.045,520.235152 L739.043,520.235152 L789.657,491.013152 L811.740224,491.013787 C810.700491,487.414676 809.173999,484.005539 807.222619,480.872369 L832.14177,466.485837 C834.075703,470.01454 835.743614,473.6838 837.131301,477.462274 Z M842.000533,501.58975 L842,502.363152 L811.045,520.235152 L787.043,520.235152 L840.496724,489.375688 C841.30274,493.379292 841.808868,497.461367 842.000533,501.58975 Z M1138.36865,486.784617 L1139.09336,486.847664 C1143.43594,487.562441 1147.7321,488.508852 1151.96373,489.681322 L1108.08534,515.015714 C1106.04171,514.118241 1104.02896,513.145677 1102.05132,512.099394 C1099.80457,511.005163 1097.64455,509.760058 1095.58472,508.375782 L1134.0095,486.190943 C1135.45086,486.448837 1136.90511,486.647129 1138.36865,486.784617 Z M1006.222,476.830152 L1006.222,490.687152 L971.796723,510.564761 C972.024757,506.150136 971.633501,501.70939 970.622956,497.384404 L1006.222,476.830152 Z M733.575866,468.234791 C726.923221,473.845743 722.142816,481.352063 719.857434,489.743589 L684.136506,510.367744 C684.075619,509.256032 684.035947,508.14132 684.017717,507.024168 C683.942686,503.416347 684.113831,499.829915 684.522,496.28737 L734.53331,467.413832 C734.210834,467.682775 733.891651,467.956442 733.575866,468.234791 Z M692.988036,444.67758 C693.001762,446.623039 692.693479,448.537877 692.09198,450.350034 L669.457135,463.416797 C660.211484,465.736907 650.178425,471.274882 642.231787,479.135224 L592,508.136152 L592,494.279152 L691.364318,436.912345 C692.522756,439.301404 693.094094,441.965139 692.988036,444.67758 Z M1058.959,474.095152 L1058.959,487.953152 L1024.009,508.131152 L1024.009,494.274152 L1058.959,474.095152 Z M1110.87241,471.898121 C1110.62812,473.428907 1110.93982,474.996462 1111.75126,476.317986 C1112.75343,477.401099 1113.94464,478.293101 1115.26667,478.950405 C1116.45973,479.698927 1117.67992,480.397845 1118.92406,481.046105 L1085.94137,500.0877 C1084.1052,498.086982 1082.41677,495.943445 1080.89375,493.672456 C1080.25064,492.526941 1079.66471,491.3542 1079.13707,490.158566 L1110.87314,471.83592 C1110.87265,471.856655 1110.87241,471.877388 1110.87241,471.898121 Z M961.525165,433.356142 L848.513484,498.603191 C849.081203,493.254789 850.158461,487.995917 851.718146,482.895565 L947.275563,427.725669 C952.201993,429.089354 956.979462,430.975067 961.525165,433.356142 Z M1006.222,449.118152 L1006.222,462.975152 L966.341372,486.001081 C964.478498,482.512028 962.143973,479.209205 959.337797,476.186913 L1006.222,449.118152 Z M681.851218,428.5485 L592,480.423152 L592,466.566152 L627.961,445.804152 L627.923787,446.468911 C628.363022,445.987921 628.810125,445.515026 629.26486,445.050393 L656.268962,429.460522 C661.330726,428.042545 666.555711,427.243952 671.829986,427.089962 C675.272147,426.775911 678.702095,427.291027 681.851218,428.5485 Z M1058.959,446.383152 L1058.959,460.240152 L1024.009,480.418152 L1024.009,466.561152 L1058.959,446.383152 Z M781.095224,426.675728 L688.030318,480.406595 C690.29637,473.571513 693.487776,467.061444 697.527157,461.066546 L759.889005,425.061318 C760.93193,425.035944 761.977587,425.032855 763.025342,425.052321 C769.151845,424.817701 775.220258,425.377172 781.095224,426.675728 Z M1158.79944,430.309355 L1075.90464,478.168837 C1075.72954,476.598491 1075.64506,475.014843 1075.65318,473.425574 C1075.64694,470.167505 1076.00844,466.957576 1076.70989,463.847575 L1142.59258,425.810428 C1147.84182,426.686267 1153.23831,428.183687 1158.79944,430.309355 Z M1191.20611,454.316157 C1191.91761,458.791436 1191.30678,463.376745 1189.4484,467.510754 C1189.2195,467.834614 1188.98037,468.149682 1188.73156,468.455593 L1177.95737,474.67485 C1173.6557,475.244458 1169.27939,474.266339 1165.62171,471.898121 C1164.50365,471.182391 1163.40779,470.495491 1162.33333,469.838074 L1190.95739,453.313118 C1191.05009,453.644014 1191.13308,453.978486 1191.20611,454.316157 Z M817.457,447.250152 L817.318759,447.115407 C820.331245,450.011262 823.09597,453.119757 825.597793,456.407474 L799.273074,471.606125 C798.203298,470.687535 797.082059,469.822516 795.912752,469.015785 C793.575891,467.125721 791.10317,465.435987 788.521017,463.956685 L817.457,447.250152 Z M1006.222,421.405152 L1006.222,435.262152 L949.740287,467.872616 C945.424763,465.133366 940.637539,463.196956 935.611664,462.171592 L1006.222,421.405152 Z M927.806,425.110152 L860.011371,464.251277 C863.09077,459.118724 866.731962,454.295754 870.896842,449.879325 C885.417296,434.200686 905.744345,425.239931 927.069192,425.116917 L927.806,425.110152 Z M1183.99051,443.479644 L1149.88559,463.169596 C1144.5811,460.842212 1139.89589,459.613495 1135.6756,459.613495 C1134.46033,459.535359 1133.24752,459.535527 1132.04413,459.611825 L1172.15875,436.45332 C1176.02269,438.516455 1179.96492,440.857916 1183.99051,443.479644 Z M807.964254,438.875262 L774.402007,458.253025 C770.842448,457.353522 767.184947,456.801989 763.479409,456.617502 L763.187509,456.747668 C758.012288,456.836186 752.931707,457.797859 748.145259,459.555298 L796.164065,431.830935 C800.299493,433.786133 804.252867,436.14236 807.964254,438.875262 Z M624.251632,434.09071 L592,452.711152 L592.000533,443.928478 C592.01699,441.986359 592.356203,440.080681 592.987513,438.283436 L612.082544,427.259666 C617.021065,427.802989 621.354213,430.357287 624.251632,434.09071 Z M1053.97156,431.479381 C1054.77366,432.312521 1055.48698,433.216238 1056.10581,434.175594 L1024.009,452.706152 L1024.00953,444.623129 C1023.95475,442.435412 1024.30549,440.281806 1025.02058,438.264375 L1045.41885,426.487451 C1048.69749,427.165326 1051.70876,428.899027 1053.97156,431.479381 Z M1115.02872,427.868846 L1087.23505,443.915115 C1089.53473,441.444741 1092.14087,439.225603 1095.0205,437.319176 C1101.18972,433.120326 1107.94591,429.943841 1115.02872,427.868846 Z M1006.222,393.692152 L1006.222,407.549152 L970.924,427.929152 L970.924,414.072152 L1006.222,393.692152 Z M1053.61755,398.197068 C1050.42376,401.45954 1045.93515,403.075842 1041.42033,402.589162 C1040.60623,402.616959 1039.79733,402.580353 1039.00017,402.482159 L1057.89394,391.574213 C1056.9846,394.050326 1055.53457,396.319203 1053.61755,398.197068 Z M1006.22261,377.642076 L1006.222,379.837152 L970.924,400.216152 L970.924,386.359152 L1003.06234,367.804269 C1005.06728,370.666926 1006.18331,374.092335 1006.22261,377.642076 Z M1058.9624,377.10074 L1027.46835,395.28313 C1025.11775,392.093626 1023.88179,388.170993 1024.00953,384.142368 L1024.009,383.423152 L1054.24932,365.964524 C1057.20563,368.901939 1058.90207,372.903471 1058.9624,377.10074 Z M992.082312,360.286929 L971.788383,372.004034 C972.661279,369.460517 974.168775,367.148905 976.207843,365.309681 C979.475207,361.930068 983.963191,360.017611 988.654573,360.005775 C989.814349,359.974937 990.962983,360.071269 992.082312,360.286929 Z M1040.51849,360.035812 L1027.1666,367.744301 C1027.78113,366.873098 1028.47919,366.055747 1029.2553,365.305165 C1032.23484,362.181457 1036.25616,360.308651 1040.51849,360.035812 Z" id="Combined-Shape" fill="#FFFFFF" fill-rule="nonzero"></path>
            </g>
        </g>
    </g>
</svg>